<?xml version="1.0" standalone="no"?>
<!DOCTYPE svg PUBLIC "-//W3C//DTD SVG 20010904//EN"
 "http://www.w3.org/TR/2001/REC-SVG-20010904/DTD/svg10.dtd">
<svg version="1.0" xmlns="http://www.w3.org/2000/svg"
 width="512.000000pt" height="512.000000pt" viewBox="0 0 512.000000 512.000000"
 preserveAspectRatio="xMidYMid meet">

<g transform="translate(0.000000,512.000000) scale(0.100000,-0.100000)"
fill="#000000" stroke="none">
<path d="M2370 5113 c-559 -53 -1006 -230 -1417 -562 -514 -413 -842 -1000
-934 -1671 -17 -123 -18 -516 -1 -635 52 -364 161 -686 333 -982 86 -147 125
-193 163 -193 33 0 76 41 76 72 0 13 -30 70 -66 128 -128 203 -237 453 -293
673 -211 822 6 1670 584 2275 377 395 885 659 1400 726 l50 7 -105 -57 c-216
-115 -365 -229 -535 -406 -266 -276 -443 -615 -520 -991 -89 -437 -33 -886
160 -1284 108 -224 216 -375 394 -554 178 -177 331 -286 556 -395 757 -368
1669 -221 2277 365 178 171 290 319 406 536 50 95 53 98 47 55 -75 -534 -333
-1032 -730 -1408 -566 -536 -1333 -760 -2110 -617 -464 86 -910 322 -1245 657
-41 41 -85 80 -97 87 -47 24 -103 -14 -103 -71 0 -34 74 -115 215 -237 600
-518 1381 -730 2160 -586 1027 191 1851 1014 2039 2039 44 238 59 492 32 544
-18 35 -57 56 -103 55 -57 -2 -84 -39 -127 -173 -135 -426 -440 -805 -834
-1037 -521 -307 -1161 -343 -1715 -97 -402 178 -755 525 -938 921 -301 650
-208 1414 241 1972 228 283 542 500 880 607 134 43 171 70 173 127 1 46 -20
85 -55 103 -25 13 -157 17 -258 7z"/>
<path d="M3005 4752 c-16 -11 -120 -110 -230 -221 l-200 -201 -307 0 -307 0
-35 -31 c-20 -17 -40 -47 -46 -67 -6 -21 -10 -159 -10 -322 l0 -284 -215 -216
-215 -216 0 -48 c0 -26 5 -57 11 -69 6 -12 103 -114 215 -227 l203 -205 3
-305 c4 -428 -24 -400 410 -400 l292 0 216 -214 c232 -231 248 -242 322 -217
22 7 102 80 243 221 l210 210 293 0 c324 0 341 3 383 61 24 34 24 35 27 339
l3 305 203 205 c112 113 209 215 215 227 6 12 11 43 11 69 l0 48 -215 216
-215 216 0 284 c0 163 -4 301 -10 322 -6 20 -26 50 -46 67 l-35 31 -305 0
-304 0 -44 40 c-51 47 -91 53 -124 17 -35 -37 -28 -71 24 -127 75 -81 73 -80
398 -80 l286 0 0 -272 c0 -166 4 -289 11 -313 9 -33 49 -78 215 -245 112 -113
204 -210 204 -215 0 -6 -93 -102 -206 -216 -172 -172 -207 -212 -214 -245 -5
-21 -10 -161 -10 -311 l0 -272 -305 -3 -305 -3 -215 -215 -215 -215 -215 215
-215 215 -305 3 -305 3 0 272 c0 150 -5 290 -10 311 -7 33 -42 73 -219 250
l-211 211 201 200 c110 110 208 214 217 230 15 26 17 71 20 323 l3 292 284 0
c173 0 295 4 312 10 15 6 121 104 235 217 l207 207 55 -52 c63 -59 98 -67 134
-29 41 43 30 75 -52 156 -69 68 -78 74 -123 78 -36 3 -56 -1 -78 -15z"/>
<path d="M2866 4200 l-161 -159 -232 -3 -233 -3 -32 -33 -33 -32 -3 -233 -3
-232 -154 -155 c-99 -99 -158 -166 -163 -185 -16 -57 2 -84 163 -245 l155
-155 0 -218 c0 -321 -14 -307 299 -307 l225 0 161 -159 c98 -98 171 -162 187
-166 54 -14 81 4 243 166 l161 159 225 0 c313 0 299 -14 299 307 l0 218 155
155 c159 159 179 187 167 246 -4 20 -55 79 -164 190 l-158 161 0 217 c0 316
11 306 -316 306 l-218 0 -161 160 c-159 158 -162 160 -205 160 -43 0 -46 -2
-204 -160z m284 -85 l74 -75 -154 0 -154 0 74 75 c41 41 77 75 80 75 3 0 39
-34 80 -75z m-610 -232 c0 -10 -203 -213 -212 -213 -10 0 -11 204 -1 213 9 9
213 9 213 0z m1057 -215 l223 -223 0 -310 0 -310 -217 -217 -218 -218 -315 0
-315 0 -217 217 -218 218 0 77 c0 65 -3 81 -20 98 -31 31 -72 30 -108 -3 l-23
-21 -79 79 -80 80 77 77 77 77 25 -29 c36 -40 77 -44 111 -10 17 17 20 33 20
107 l0 88 222 222 223 223 305 0 305 0 222 -222z m221 110 c1 -60 -1 -108 -5
-108 -11 0 -213 203 -213 213 0 4 48 6 108 5 l107 -3 3 -107z m235 -566 l77
-77 -80 -80 -80 -80 0 158 c0 86 1 157 3 157 1 0 37 -35 80 -78z m-1618 -712
l110 -110 -113 0 -112 0 0 110 c0 61 1 110 3 110 1 0 52 -49 112 -110z m1385
0 l0 -110 -112 0 -113 0 110 110 c60 61 111 110 112 110 2 0 3 -49 3 -110z
m-600 -268 c0 -4 -34 -41 -75 -82 l-75 -74 -75 74 c-41 41 -75 78 -75 82 0 5
68 8 150 8 83 0 150 -3 150 -8z"/>
</g>
</svg>
